<svg xmlns="http://www.w3.org/2000/svg" version="1.1" xmlns:xlink="http://www.w3.org/1999/xlink" xmlns:svgjs="http://svgjs.dev/svgjs" width="1500" height="1500" viewBox="0 0 1500 1500"><rect width="1500" height="1500" fill="#0a1627"></rect><g transform="matrix(0.41841004184100417,0,0,0.41841004184100417,435.3358595722115,250.40485829959516)"><svg viewBox="0 0 155 247" data-background-color="#0a1627" preserveAspectRatio="xMidYMid meet" height="2390" width="1500" xmlns="http://www.w3.org/2000/svg" xmlns:xlink="http://www.w3.org/1999/xlink"><g id="tight-bounds" transform="matrix(1,0,0,1,0.21155388098284789,-0.09999999999999432)"><svg viewBox="0 0 154.5768922380343 247.2" height="247.2" width="154.5768922380343"><g><svg viewBox="0 0 231.85946443514644 370.7906064" height="247.2" width="154.5768922380343"><g><svg viewBox="0 0 231.85946443514644 370.7906064" height="370.7906064" width="231.85946443514644"><g id="textblocktransform"><svg viewBox="0 0 231.85946443514644 370.7906064" height="370.7906064" width="231.85946443514644" id="textblock"><g><rect width="231.85946443514644" height="247.2" fill="none" stroke-width="9.018103199999999" stroke="#fe0039" data-fill-palette-color="none" data-stroke-palette-color="tertiary"></rect><rect width="231.85946443514644" height="123.5906064" y="247.2" fill="#fe0039" data-fill-palette-color="tertiary"></rect></g><g><svg viewBox="0 0 231.85946443514644 247.2" height="247.2" width="231.85946443514644"><g transform="matrix(1,0,0,1,23.607599999999998,23.607599999999998)"><svg width="184.64426443514645" viewBox="1.65 -35.85 33.1 35.85" height="199.9848" data-palette-color="#fe0039"><path d="M10.1 0L5.25 0 5.25-35.85 10.1-35.85 10.1-20.15 11.9-20.15Q12.85-20.15 13.43-20.38 14-20.6 14.5-21.2L14.5-21.2 26.4-34.7Q26.95-35.3 27.48-35.58 28-35.85 28.8-35.85L28.8-35.85 32.9-35.85 19.25-20.4Q18.75-19.85 18.28-19.45 17.8-19.05 17.3-18.8L17.3-18.8Q18-18.55 18.53-18.1 19.05-17.65 19.6-17L19.6-17 33.85 0 29.65 0Q28.85 0 28.35-0.28 27.85-0.55 27.45-1.05L27.45-1.05 15.1-15.25Q14.45-15.95 13.98-16.18 13.5-16.4 12.3-16.4L12.3-16.4 10.1-16.4 10.1 0ZM29.35-31.95L28.65-31.8 27.6-33.45 27.6-35.85 33.4-35.85 29.35-31.95ZM30.2-3.9L29.65 0 27.25-4.55 30.2-3.9ZM6.75 0L1.65 0 1.65-2.05Q1.65-2.5 1.85-2.78 2.05-3.05 2.45-3.1L2.45-3.1 6.2-3.9 6.75 0ZM13.75 0L8.65 0 9.2-3.9 12.95-3.1Q13.35-3.05 13.55-2.78 13.75-2.5 13.75-2.05L13.75-2.05 13.75 0ZM1.65-35.85L6.75-35.85 6.2-31.95 2.45-32.75Q2.05-32.85 1.85-33.1 1.65-33.35 1.65-33.8L1.65-33.8 1.65-35.85ZM8.65-35.85L13.75-35.85 13.75-33.8Q13.75-33.35 13.55-33.1 13.35-32.85 12.95-32.75L12.95-32.75 9.2-31.95 8.65-35.85ZM34.75 0L29.65 0 30.2-3.9 33.95-3.1Q34.35-3.05 34.55-2.78 34.75-2.5 34.75-2.05L34.75-2.05 34.75 0ZM28.8-35.85L33.9-35.85 33.9-33.8Q33.9-33.35 33.7-33.1 33.5-32.85 33.1-32.75L33.1-32.75 29.35-31.95 28.8-35.85ZM22.95-35.85L28.05-35.85 27.5-31.95 23.75-32.75Q23.35-32.85 23.15-33.1 22.95-33.35 22.95-33.8L22.95-33.8 22.95-35.85Z" opacity="1" transform="matrix(1,0,0,1,0,0)" fill="#fe0039" class="wordmark-text-0" data-fill-palette-color="primary" id="text-0"></path></svg></g></svg></g></svg></g></svg></g></svg></g><defs></defs></svg><rect width="154.5768922380343" height="247.2" fill="none" stroke="none" visibility="hidden"></rect></g></svg></g></svg>